<svg width="24" height="24" viewBox="0 0 24 24" fill="none" xmlns="http://www.w3.org/2000/svg">
<g clip-path="url(#clip0_190_21711)">
<path d="M20.6393 14.265H18.7793V12.765H20.6393C21.4493 12.765 22.1693 12.225 22.3793 11.445L22.4243 11.28C22.5743 10.725 22.4693 10.155 22.1243 9.69C21.7793 9.225 21.2543 8.97 20.6843 8.97H19.9343L20.6843 7.47C21.7343 7.47 22.6943 7.95 23.3243 8.79C23.9543 9.63 24.1493 10.68 23.8643 11.7L23.8193 11.865C23.4143 13.29 22.1093 14.28 20.6243 14.28L20.6393 14.265Z" fill="white"/>
<path d="M14.0692 18.15H9.92915C6.83915 18.15 4.25915 16.05 3.95915 13.29L3.16415 6.135C3.07415 5.34 3.76415 4.65 4.66415 4.65H19.3492C20.2342 4.65 20.9242 5.34 20.8492 6.135L20.0542 13.29C19.7542 16.05 17.1592 18.15 14.0842 18.15H14.0692Z" fill="white"/>
<path d="M21 18.15H3C2.17157 18.15 1.5 18.8216 1.5 19.65C1.5 20.4784 2.17157 21.15 3 21.15H21C21.8284 21.15 22.5 20.4784 22.5 19.65C22.5 18.8216 21.8284 18.15 21 18.15Z" fill="#ECEEF1"/>
<path d="M6.86914 4.65H6.11914V9.15H6.86914V4.65Z" fill="#FED051"/>
<path d="M9.49414 14.265H3.49414V9.765L6.11914 8.445H6.86914L9.49414 9.765V14.265Z" fill="#FF9B14"/>
</g>
<defs>
<clipPath id="clip0_190_21711">
<rect width="24" height="24" fill="white"/>
</clipPath>
</defs>
</svg>
