<svg width="24" height="24" viewBox="0 0 24 24" fill="none" xmlns="http://www.w3.org/2000/svg">
<g clip-path="url(#clip0_164_16601)">
<path d="M19.2748 2.76001H9.73477C7.53943 2.76001 5.75977 4.53968 5.75977 6.73501V10.71C5.75977 12.9053 7.53943 14.685 9.73477 14.685H19.2748C21.4701 14.685 23.2498 12.9053 23.2498 10.71V6.73501C23.2498 4.53968 21.4701 2.76001 19.2748 2.76001Z" fill="white"/>
<path fill-rule="evenodd" clip-rule="evenodd" d="M14.265 6.76501H4.725C2.535 6.76501 0.75 8.55001 0.75 10.74V14.715C0.75 16.905 2.535 18.69 4.725 18.69C4.725 18.69 4.875 19.62 4.47 20.67C4.35 20.985 4.635 21.315 4.95 21.21C5.775 20.94 7.005 20.295 7.92 18.69H14.28C16.47 18.69 18.255 16.905 18.255 14.715V10.74C18.255 8.55001 16.47 6.76501 14.28 6.76501H14.265Z" fill="#FED051"/>
<path d="M10.7852 12.075H4.36523C3.94523 12.075 3.61523 11.745 3.61523 11.325C3.61523 10.905 3.94523 10.575 4.36523 10.575H10.7852C11.2052 10.575 11.5352 10.905 11.5352 11.325C11.5352 11.745 11.2052 12.075 10.7852 12.075Z" fill="#FF9B14"/>
<path d="M13.9952 15.135H4.36523C3.94523 15.135 3.61523 14.805 3.61523 14.385C3.61523 13.965 3.94523 13.635 4.36523 13.635H14.0102C14.4302 13.635 14.7602 13.965 14.7602 14.385C14.7602 14.805 14.4302 15.135 14.0102 15.135H13.9952Z" fill="#FF9B14"/>
</g>
<defs>
<clipPath id="clip0_164_16601">
<rect width="24" height="24" fill="white"/>
</clipPath>
</defs>
</svg>
