<svg width="24" height="24" viewBox="0 0 24 24" fill="none" xmlns="http://www.w3.org/2000/svg">
<g clip-path="url(#clip0_164_16165)">
<path d="M16.035 1.5H7.965C4.39448 1.5 1.5 4.39448 1.5 7.965V16.035C1.5 19.6055 4.39448 22.5 7.965 22.5H16.035C19.6055 22.5 22.5 19.6055 22.5 16.035V7.965C22.5 4.39448 19.6055 1.5 16.035 1.5Z" fill="#46CBAE"/>
<path d="M16.5147 7.28995C15.9747 7.28995 15.5397 7.72495 15.5397 8.26495V11.835H15.2997V6.68995C15.2997 6.14995 14.8647 5.71495 14.3247 5.71495C13.7847 5.71495 13.3497 6.14995 13.3497 6.68995V11.835H13.1097V5.92495C13.1097 5.38495 12.6747 4.94995 12.1347 4.94995C11.5947 4.94995 11.1597 5.38495 11.1597 5.92495V11.85H10.9197V6.70495C10.9197 6.16495 10.4847 5.72995 9.94473 5.72995C9.40473 5.72995 8.96973 6.16495 8.96973 6.70495V12.42C8.96973 13.26 7.94973 13.68 7.34973 13.095L6.85473 12.6C6.34473 12.09 5.51973 12.09 5.00973 12.6C4.51473 13.095 4.49973 13.905 4.97973 14.415L8.23473 17.88C8.93973 18.63 9.92973 19.065 10.9647 19.065H14.4447C15.7647 19.065 16.8897 18.12 17.1447 16.83C17.3997 15.54 17.5347 14.265 17.5347 12.96V8.27995C17.5347 7.73995 17.0997 7.30495 16.5597 7.30495L16.5147 7.28995Z" fill="white"/>
<path d="M11.5048 16.86C11.3098 16.86 11.1148 16.785 10.9798 16.635L9.35977 15.015C9.05977 14.715 9.05977 14.25 9.35977 13.95C9.65977 13.65 10.1248 13.65 10.4248 13.95L12.0448 15.57C12.3448 15.87 12.3448 16.335 12.0448 16.635C11.8948 16.785 11.6998 16.86 11.5198 16.86H11.5048Z" fill="#E8E8E8"/>
</g>
<defs>
<clipPath id="clip0_164_16165">
<rect width="24" height="24" fill="white"/>
</clipPath>
</defs>
</svg>
