<svg width="24" height="24" viewBox="0 0 24 24" fill="none" xmlns="http://www.w3.org/2000/svg">
<g clip-path="url(#clip0_189_20484)">
<path d="M20.5714 6.85714H20.4857C20.0914 4.90286 18.36 3.42857 16.2857 3.42857C15.8229 3.42857 15.3771 3.51429 14.9486 3.66857C14.04 1.52571 11.9143 0 9.42857 0C6.12 0 3.42857 2.69143 3.42857 6C3.42857 6.29143 3.48 6.58286 3.51429 6.85714H3.42857C1.54286 6.85714 0 8.4 0 10.2857C0 12.1714 1.54286 13.7143 3.42857 13.7143H20.5714C22.4571 13.7143 24 12.1714 24 10.2857C24 8.4 22.4571 6.85714 20.5714 6.85714Z" fill="#96989C"/>
<path d="M4.30382 20.6912C4.08096 20.6912 3.87525 20.6227 3.68668 20.5027C3.17239 20.1598 3.03525 19.457 3.3781 18.9427L5.62382 15.5827C5.96668 15.0684 6.66953 14.9312 7.18382 15.2741C7.6981 15.617 7.83525 16.3198 7.49239 16.8341L5.24667 20.1941C5.02382 20.5198 4.68096 20.6912 4.32096 20.6912H4.30382Z" fill="#54DAFF"/>
<path d="M10.0284 22.9371C9.80557 22.9371 9.59986 22.8685 9.41128 22.7485C8.897 22.4057 8.75986 21.7028 9.10271 21.1885L11.3484 17.8285C11.6913 17.3142 12.3941 17.1771 12.9084 17.5199C13.4227 17.8628 13.5599 18.5657 13.217 19.0799L10.9713 22.4399C10.7484 22.7657 10.4056 22.9371 10.0456 22.9371H10.0284Z" fill="#54DAFF"/>
<path d="M16.4737 20.6912C16.2509 20.6912 16.0452 20.6227 15.8566 20.5027C15.3423 20.1598 15.2052 19.457 15.548 18.9427L17.7937 15.5827C18.1366 15.0684 18.8395 14.9312 19.3537 15.2741C19.868 15.617 20.0052 16.3198 19.6623 16.8341L17.4166 20.1941C17.1937 20.5198 16.8509 20.6912 16.4909 20.6912H16.4737Z" fill="#54DAFF"/>
</g>
<defs>
<clipPath id="clip0_189_20484">
<rect width="24" height="24" fill="white"/>
</clipPath>
</defs>
</svg>
