<svg width="24" height="24" viewBox="0 0 24 24" fill="none" xmlns="http://www.w3.org/2000/svg">
<g clip-path="url(#clip0_164_16171)">
<path d="M20.9387 8.76004H20.5187C20.2188 7.86004 19.7687 7.02004 19.1987 6.27004L19.5587 4.02004C19.6487 3.48004 19.1687 3.03004 18.6437 3.13504L17.9387 3.27004C16.7237 3.51004 15.4787 3.37504 14.2937 3.04504C13.4387 2.80504 12.5237 2.67004 11.5937 2.67004C6.41875 2.67004 2.21875 6.51004 2.21875 11.25C2.21875 13.635 3.26875 15.78 4.97875 17.34L4.57375 19.5C4.39375 20.46 5.12875 21.345 6.10375 21.345H7.36375C7.94875 21.345 8.50375 21.015 8.75875 20.475L9.22375 19.545C9.97375 19.725 10.7537 19.83 11.5637 19.83C12.3737 19.83 13.1537 19.725 13.9037 19.545L14.4587 20.535C14.7287 21.03 15.2537 21.33 15.8237 21.33H17.0387C18.0137 21.33 18.7487 20.445 18.5687 19.485L18.1637 17.325C19.3187 16.26 20.1737 14.925 20.6087 13.425H20.9237C21.7787 13.425 22.4837 12.72 22.4837 11.865V10.305C22.4837 9.45004 21.7787 8.74504 20.9237 8.74504L20.9387 8.76004Z" fill="#FF71AB"/>
<path d="M4.16965 8.34003C2.66965 8.34003 1.81465 7.09503 1.54465 6.36003C1.40965 5.98503 1.58965 5.56503 1.96465 5.43003C2.33965 5.29503 2.75965 5.47503 2.89465 5.85003C2.89465 5.85003 3.29965 6.88503 4.16965 6.88503C4.57465 6.88503 4.88965 7.21503 4.88965 7.60503C4.88965 7.99503 4.55965 8.32503 4.16965 8.32503V8.34003Z" fill="#FF71AB"/>
<path d="M18.6596 10.905C18.2546 10.905 17.9396 10.59 17.9396 10.185C17.9396 10.17 17.9246 9.34503 17.4896 9.34503C17.0546 9.34503 17.0396 10.17 17.0396 10.185C17.0396 10.575 16.7096 10.905 16.3196 10.905C15.9146 10.905 15.5996 10.575 15.5996 10.185C15.5996 9.09003 16.1996 7.90503 17.4896 7.90503C18.7796 7.90503 19.3796 9.09003 19.3796 10.185C19.3796 10.59 19.0496 10.905 18.6596 10.905Z" fill="#EA1C70"/>
</g>
<defs>
<clipPath id="clip0_164_16171">
<rect width="24" height="24" fill="white"/>
</clipPath>
</defs>
</svg>
