<svg width="24" height="24" viewBox="0 0 24 24" fill="none" xmlns="http://www.w3.org/2000/svg">
<g clip-path="url(#clip0_164_16166)">
<path d="M17.7758 12.075L8.1308 13.74L4.2908 3.225C3.9758 2.385 3.2258 1.74 2.3258 1.695C0.735797 1.605 -0.404203 3.165 0.135797 4.635L6.0308 20.79C6.3608 21.69 7.2308 22.305 8.1908 22.305H17.5058C18.5258 22.305 19.4258 21.63 19.7108 20.64L21.1058 15.795C21.7058 13.71 19.9208 11.715 17.7758 12.075Z" fill="#46CBAE"/>
<path d="M7.41884 6.13931C8.62825 5.85386 9.37727 4.64204 9.09183 3.43263C8.80638 2.22322 7.59456 1.47419 6.38515 1.75964C5.17573 2.04509 4.42671 3.25691 4.71216 4.46632C4.99761 5.67573 6.20943 6.42475 7.41884 6.13931Z" fill="#4B8E80"/>
<path d="M23.7605 20.3249L20.8955 16.5449L19.9355 19.8599L21.9305 21.9149C22.1855 22.1699 22.5455 22.3049 22.9055 22.2749C23.8505 22.1999 24.3455 21.1049 23.7755 20.3399L23.7605 20.3249Z" fill="#4B8E80"/>
<path d="M10.9657 10.5L16.2457 9.59999C16.9507 9.47999 17.6257 9.92999 17.7907 10.62C17.9707 11.385 17.4757 12.135 16.6957 12.27L8.13066 13.74L6.42066 9.07499C6.06066 8.08499 6.63066 7.00499 7.66566 6.74999C8.49066 6.53999 9.34566 6.95999 9.70566 7.73999L10.9657 10.515V10.5Z" fill="#4B8E80"/>
</g>
<defs>
<clipPath id="clip0_164_16166">
<rect width="24" height="24" fill="white"/>
</clipPath>
</defs>
</svg>
