<svg width="24" height="24" viewBox="0 0 24 24" fill="none" xmlns="http://www.w3.org/2000/svg">
<g clip-path="url(#clip0_189_20468)">
<path d="M21 2.25H3C1.34315 2.25 0 3.59315 0 5.25V18.75C0 20.4069 1.34315 21.75 3 21.75H21C22.6569 21.75 24 20.4069 24 18.75V5.25C24 3.59315 22.6569 2.25 21 2.25Z" fill="#FED051"/>
<path d="M20.25 3.75H3.75C2.50736 3.75 1.5 4.75736 1.5 6V18C1.5 19.2426 2.50736 20.25 3.75 20.25H20.25C21.4926 20.25 22.5 19.2426 22.5 18V6C22.5 4.75736 21.4926 3.75 20.25 3.75Z" fill="#FF9B14"/>
<path d="M3.31445 9.42004H4.63445L6.74945 12.135V9.42004H8.15945V14.55H6.91445L4.72445 11.745V14.55H3.31445V9.42004Z" fill="white"/>
<path d="M8.80469 9.42004H12.9297V10.635H10.2147V11.415H12.6747V12.54H10.2147V13.35H12.9747V14.565H8.81969V9.43504L8.80469 9.42004Z" fill="white"/>
<path d="M13.3496 9.42003H14.8496L15.7496 12.39L16.7396 9.40503H17.9546L18.9446 12.39L19.8446 9.42003H21.3146L19.6046 14.58H18.3746L17.3396 11.625L16.3196 14.58H15.0746L13.3646 9.42003H13.3496Z" fill="white"/>
</g>
<defs>
<clipPath id="clip0_189_20468">
<rect width="24" height="24" fill="white"/>
</clipPath>
</defs>
</svg>
