<svg width="24" height="24" viewBox="0 0 24 24" fill="none" xmlns="http://www.w3.org/2000/svg">
<g clip-path="url(#clip0_164_16170)">
<path d="M12 23.25C18.2132 23.25 23.25 18.2132 23.25 12C23.25 5.7868 18.2132 0.75 12 0.75C5.7868 0.75 0.75 5.7868 0.75 12C0.75 18.2132 5.7868 23.25 12 23.25Z" fill="#4BC947"/>
<path d="M11.9991 20.835C16.8785 20.835 20.8341 16.8795 20.8341 12C20.8341 7.1206 16.8785 3.16504 11.9991 3.16504C7.11963 3.16504 3.16406 7.1206 3.16406 12C3.16406 16.8795 7.11963 20.835 11.9991 20.835Z" fill="white"/>
<path d="M12.0008 13.2C12.6635 13.2 13.2008 12.6628 13.2008 12C13.2008 11.3373 12.6635 10.8 12.0008 10.8C11.338 10.8 10.8008 11.3373 10.8008 12C10.8008 12.6628 11.338 13.2 12.0008 13.2Z" fill="#55536B"/>
<path d="M7.19953 16.275C6.13453 15.09 5.51953 13.515 5.56453 11.775C5.66953 8.48998 8.30953 5.77498 11.5795 5.57998C15.3145 5.35498 18.4195 8.30998 18.4195 12C18.4195 13.635 17.8045 15.135 16.7995 16.275C16.6645 16.44 16.6645 16.68 16.8145 16.83C16.9795 16.995 17.2495 16.98 17.3995 16.815C18.6295 15.435 19.3345 13.56 19.2145 11.535C18.9895 7.94998 16.0945 5.03998 12.5095 4.79998C8.27953 4.51498 4.76953 7.84499 4.76953 12.015C4.76953 13.86 5.45953 15.555 6.59953 16.83C6.74953 16.995 7.00453 17.01 7.16953 16.845L7.18453 16.83C7.33453 16.68 7.33453 16.455 7.19953 16.29V16.275Z" fill="url(#paint0_linear_164_16170)"/>
<path opacity="0.4" d="M13.5909 17.385H10.3959C9.94859 17.385 9.58594 17.7443 9.58594 18.1875C9.58594 18.6307 9.94859 18.99 10.3959 18.99H13.5909C14.0383 18.99 14.4009 18.6307 14.4009 18.1875C14.4009 17.7443 14.0383 17.385 13.5909 17.385Z" fill="#4BC947"/>
<path d="M8.23588 13.2C8.05588 13.2 7.90588 13.08 7.87588 12.9C7.83088 12.705 7.96588 12.495 8.16088 12.45L19.2009 10.02C19.4109 9.97504 19.6059 10.11 19.6509 10.305C19.6959 10.5 19.5609 10.71 19.3659 10.755L8.32588 13.185C8.32588 13.185 8.26588 13.185 8.25088 13.185L8.23588 13.2Z" fill="#55536B"/>
</g>
<defs>
<linearGradient id="paint0_linear_164_16170" x1="4.76953" y1="10.86" x2="19.2295" y2="10.86" gradientUnits="userSpaceOnUse">
<stop offset="0.01" stop-color="#4BC947"/>
<stop offset="1" stop-color="#EA1C70"/>
</linearGradient>
<clipPath id="clip0_164_16170">
<rect width="24" height="24" fill="white"/>
</clipPath>
</defs>
</svg>
