<svg width="24" height="24" viewBox="0 0 24 24" fill="none" xmlns="http://www.w3.org/2000/svg"><path d="M0 12C0 5.37258 5.37258 0 12 0C18.6274 0 24 5.37258 24 12C24 18.6274 18.6274 24 12 24C5.37258 24 0 18.6274 0 12Z" fill="#96989C"></path><path fill-rule="evenodd" clip-rule="evenodd" d="M10.2197 7.21967C10.5126 6.92678 10.9874 6.92678 11.2803 7.21967L15.8107 11.75L11.2803 16.2803C10.9874 16.5732 10.5126 16.5732 10.2197 16.2803C9.92678 15.9874 9.92678 15.5126 10.2197 15.2197L13.6893 11.75L10.2197 8.28033C9.92678 7.98744 9.92678 7.51256 10.2197 7.21967Z" fill="white"></path></svg>