<svg width="48" height="48" viewBox="0 0 48 48" fill="none" xmlns="http://www.w3.org/2000/svg">
<path d="M40.2469 6H7.75463C6.12326 6 4.80078 7.34315 4.80078 9V39C4.80078 40.6569 6.12326 42 7.75463 42H40.2469C41.8783 42 43.2008 40.6569 43.2008 39V9C43.2008 7.34315 41.8783 6 40.2469 6Z" fill="#DDB780"/>
<path d="M28.4319 6H19.5703V24H28.4319V6Z" fill="#C69D67"/>
<path d="M19.4012 30H8.20117C7.64889 30 7.20117 30.4477 7.20117 31V38.6C7.20117 39.1523 7.64889 39.6 8.20117 39.6H19.4012C19.9535 39.6 20.4012 39.1523 20.4012 38.6V31C20.4012 30.4477 19.9535 30 19.4012 30Z" fill="#E7E9EC"/>
<path d="M16.8016 32.3999H9.60156V33.5999H16.8016V32.3999Z" fill="#BEC0C4"/>
<path d="M16.8016 34.2H9.60156V35.4H16.8016V34.2Z" fill="#BEC0C4"/>
</svg>
