<svg width="56" height="56" viewBox="0 0 56 56" fill="none" xmlns="http://www.w3.org/2000/svg"><g clip-path="url(#clip0_1785_210416)"><path d="M14.4319 11.3093L2.30911 23.4321C1.03382 24.7074 1.03382 26.775 2.30911 28.0503L5.42064 31.1618C6.69592 32.4371 8.76357 32.4371 10.0389 31.1618L22.1617 19.039C23.437 17.7637 23.437 15.6961 22.1617 14.4208L19.0502 11.3093C17.7749 10.034 15.7072 10.034 14.4319 11.3093Z" fill="url(#paint0_linear_1785_210416)"></path><path d="M39.3901 36.9781L29.2586 27.0671L31.3486 22.2178L21.6907 19.5073L10.8979 30.3L23.1602 45.1013C24.9318 46.8728 27.332 47.6158 28.4749 45.4278L29.0872 45.9993C29.9771 46.8892 31.4139 46.8892 32.3038 45.9993C33.1937 45.1094 33.1937 43.6726 32.3038 42.7827L32.9487 43.4277C33.8386 44.3175 35.2755 44.3175 36.1653 43.4277C37.0552 42.5378 37.0552 41.1009 36.1653 40.2111C37.0552 41.1009 38.4921 41.1009 39.3819 40.2111C40.2718 39.3212 40.2718 37.8843 39.3819 36.9945L39.3901 36.9781Z" fill="url(#paint1_linear_1785_210416)"></path><path d="M35.7656 17.393L46.6155 31.3615C47.7666 32.8637 49.9055 33.1494 51.4077 31.9983L54.6569 29.5165C56.1591 28.3654 56.4448 26.2264 55.2937 24.7243L44.4439 10.7476C43.2927 9.24543 41.1538 8.9597 39.6516 10.1108L36.4024 12.5926C34.9002 13.7438 34.6145 15.8827 35.7656 17.3849V17.393Z" fill="url(#paint2_linear_1785_210416)"></path><path d="M40.0266 38.2111L46.4271 31.1248L35.8793 17.54L23.2252 23.214C21.8781 23.8099 21.2495 25.3856 21.821 26.7408C22.2373 27.7286 23.1844 28.3736 24.2538 28.3981L30.6217 28.3736L39.3898 36.9865L40.0266 38.2193V38.2111Z" fill="url(#paint3_linear_1785_210416)"></path></g><defs><linearGradient id="paint0_linear_1785_210416" x1="8.67252" y1="17.2146" x2="16.1003" y2="25.1004" gradientUnits="userSpaceOnUse"><stop stop-color="#CAB2F9"></stop><stop offset="1" stop-color="#B08CF7"></stop></linearGradient><linearGradient id="paint1_linear_1785_210416" x1="15.0148" y1="24.5324" x2="34.0417" y2="43.5593" gradientUnits="userSpaceOnUse"><stop stop-color="#FFE9E2"></stop><stop offset="1" stop-color="#F4C4B4"></stop></linearGradient><linearGradient id="paint2_linear_1785_210416" x1="49.1658" y1="17.7025" x2="40.3842" y2="25.0205" gradientUnits="userSpaceOnUse"><stop stop-color="#B3D7FF"></stop><stop offset="1" stop-color="#66AFFF"></stop></linearGradient><linearGradient id="paint3_linear_1785_210416" x1="36.9687" y1="19.1661" x2="31.6021" y2="43.0716" gradientUnits="userSpaceOnUse"><stop stop-color="#FFD1D1"></stop><stop offset="1" stop-color="#EFA5A5"></stop></linearGradient><clipPath id="clip0_1785_210416"><rect width="56" height="56" fill="white"></rect></clipPath></defs></svg>