<svg width="32" height="32" viewBox="0 0 32 32" fill="none" xmlns="http://www.w3.org/2000/svg"><g clip-path="url(#clip0_2635_268850)"><rect width="32" height="32" rx="8" fill="#BEC0C4"></rect><path d="M16 5C9.92 5 5 9.92 5 16C5 22.08 9.92 27 16 27C22.08 27 27 22.08 27 16C27 9.92 22.08 5 16 5ZM13.18 17.85H10.96C10.6 17.85 10.3 17.75 10.07 17.55C9.84 17.35 9.72 17.09 9.72 16.74C9.72 16.39 9.84 16.14 10.07 15.95C10.31 15.75 10.6 15.65 10.96 15.65H13.18V17.85ZM21.4 16.63C20.73 17.45 19.74 17.86 18.46 17.86H16.95V15.66H17.78C18.4 15.66 18.86 15.5 19.2 15.16C19.51 14.85 19.67 14.42 19.67 13.89C19.64 13.4 19.47 13.01 19.15 12.72C18.83 12.43 18.42 12.29 17.94 12.29H16.33V20.52C16.33 20.92 16.22 21.27 15.99 21.54C15.77 21.81 15.46 21.94 15.06 21.94C14.66 21.94 14.36 21.81 14.12 21.53C13.88 21.25 13.77 20.92 13.77 20.51V11.64C13.77 11.14 13.91 10.77 14.18 10.49C14.45 10.21 14.84 10.07 15.34 10.07H18.11C19.42 10.07 20.42 10.4 21.07 11.04C21.31 11.27 21.53 11.55 21.72 11.86C21.91 12.17 22.05 12.5 22.15 12.85C22.25 13.2 22.3 13.54 22.3 13.89C22.3 15.02 22 15.94 21.41 16.65L21.4 16.63Z" fill="white"></path></g><defs><clipPath id="clip0_2635_268850"><rect width="32" height="32" fill="white"></rect></clipPath></defs></svg>