<svg width="32" height="32" viewBox="0 0 32 32" fill="none" xmlns="http://www.w3.org/2000/svg"><g clip-path="url(#clip0_2635_268851)"><rect width="32" height="32" rx="8" fill="#BEC0C4"></rect><path d="M7.85027 13.73C7.26027 13.73 6.78027 14.21 6.78027 14.8C6.78027 15.39 7.26027 15.87 7.85027 15.87C8.44027 15.87 8.92027 15.39 8.92027 14.8C8.92027 14.21 8.44027 13.73 7.85027 13.73Z" fill="white"></path><path d="M17.3698 13.73C16.7798 13.73 16.2998 14.21 16.2998 14.8C16.2998 15.39 16.7798 15.87 17.3698 15.87C17.9598 15.87 18.4398 15.39 18.4398 14.8C18.4398 14.21 17.9598 13.73 17.3698 13.73Z" fill="white"></path><path d="M25.0504 4.72998H6.48043C4.11043 4.72998 2.19043 6.65998 2.19043 9.02998V19.24C2.19043 21.61 4.11043 23.54 6.48043 23.54H12.8804L15.0604 27.09C15.0604 27.09 15.0804 27.13 15.1304 27.19C15.2604 27.41 15.4904 27.56 15.7704 27.56C16.0504 27.56 16.2704 27.41 16.4004 27.2C16.4604 27.14 16.4704 27.09 16.4704 27.09L18.6504 23.54H25.0504C27.4204 23.54 29.3404 21.61 29.3404 19.24V9.02998C29.3404 6.65998 27.4204 4.72998 25.0504 4.72998ZM8.22043 17.33C7.22043 17.33 6.82043 16.61 6.82043 16.61V17.15H5.14043V10.23H6.80043V12.87C7.47043 12.21 8.22043 12.21 8.22043 12.21C10.4704 12.21 10.5604 14.74 10.5604 14.74C10.5604 17.24 8.22043 17.33 8.22043 17.33ZM13.4504 12.68V17.16H11.8504V13.06C11.8504 11.65 11.0904 11.68 11.0904 11.68V10.08C13.5204 10.08 13.4504 12.68 13.4504 12.68ZM20.1804 14.8C20.1804 17.33 17.3704 17.33 17.3704 17.33C14.5404 17.33 14.6204 14.8 14.6204 14.8C14.6204 12.24 17.3704 12.24 17.3704 12.24C20.2704 12.24 20.1804 14.8 20.1804 14.8ZM26.3804 17.09C26.3804 19.71 23.9504 19.68 23.9504 19.68H23.3004V18.21H23.7004C24.8804 18.21 24.7604 16.99 24.7604 16.99V16.6C24.2404 17.27 23.3004 17.23 23.3004 17.23C20.9904 17.23 21.0104 14.76 21.0104 14.76C21.0104 12.11 23.3604 12.22 23.3604 12.22C24.2804 12.22 24.7604 12.85 24.7604 12.85V12.38H26.3804V17.07V17.09Z" fill="white"></path><path d="M23.7702 13.73C23.1802 13.73 22.7002 14.21 22.7002 14.8C22.7002 15.39 23.1802 15.87 23.7702 15.87C24.3602 15.87 24.8402 15.39 24.8402 14.8C24.8402 14.21 24.3602 13.73 23.7702 13.73Z" fill="white"></path></g><defs><clipPath id="clip0_2635_268851"><rect width="32" height="32" fill="white"></rect></clipPath></defs></svg>