<svg width="48" height="48" viewBox="0 0 48 48" fill="none" xmlns="http://www.w3.org/2000/svg">
<g clip-path="url(#clip0_2895_157712)">
<path d="M7.19922 16.8L23.9992 4.80005L40.7992 16.8V40.0001C40.7992 41.1046 39.9038 42 38.7992 42H9.19922C8.09465 42 7.19922 41.1046 7.19922 40V16.8Z" fill="#96989C"/>
<path d="M32.1796 32.9315L25.2409 25.9507C25.9271 24.1863 25.5459 22.1151 24.0971 20.6576C22.7241 19.2762 20.7329 18.8898 19.0141 19.4425C18.7363 19.5318 18.6724 19.8794 18.8781 20.0863L21.4391 22.6629C21.6019 22.8267 21.6019 23.0912 21.4391 23.255L19.7404 24.964C19.5775 25.1279 19.3128 25.1294 19.1481 24.9674L16.5038 22.3676C16.3002 22.1674 15.9605 22.2254 15.8661 22.4949C15.2582 24.2309 15.7013 26.2491 17.0822 27.6384C18.5309 29.0959 20.5897 29.4795 22.3434 28.789L29.2821 35.7698C29.5871 36.0767 30.0446 36.0767 30.3496 35.7698L32.1033 34.0054C32.4846 33.6986 32.4846 33.1616 32.1796 32.9315Z" fill="white"/>
<path d="M44.2026 20.5659C43.3725 21.784 41.6946 22.0648 40.5131 21.1835L24.0004 8.86691L7.48773 21.1835C6.30614 22.0648 4.62831 21.784 3.79818 20.5659C3.01672 19.4192 3.27757 17.8604 4.38978 17.0306L24.0004 2.3999L43.611 17.0306C44.7232 17.8604 44.9841 19.4192 44.2026 20.5659Z" fill="#3C3E42"/>
</g>
<defs>
<clipPath id="clip0_2895_157712">
<rect width="48" height="48" fill="white"/>
</clipPath>
</defs>
</svg>
