<svg width="24" height="24" viewBox="0 0 24 24" fill="none" xmlns="http://www.w3.org/2000/svg">
<g clip-path="url(#clip0_164_16600)">
<path d="M11.9998 21.255L3.14984 12.405C0.944844 10.2 0.944844 6.61501 3.14984 4.41001C5.35484 2.20501 8.93984 2.20501 11.1448 4.41001L11.9998 5.25001L12.8548 4.41001C15.0598 2.20501 18.6448 2.20501 20.8498 4.41001C23.0548 6.61501 23.0548 10.2 20.8498 12.405L11.9998 21.255Z" fill="#FF71AB"/>
<g opacity="0.4">
<path d="M6.16477 4.33499C5.12977 4.49999 3.17977 5.47499 3.13477 7.93499C3.13477 8.35499 3.46477 8.68499 3.86977 8.69999C4.27477 8.69999 4.61977 8.36999 4.61977 7.96499C4.64977 6.19499 6.20977 5.84999 6.38977 5.81999C6.79477 5.74499 7.06477 5.36999 7.00477 4.96499C6.94477 4.55999 6.55477 4.27499 6.14977 4.34999L6.16477 4.33499Z" fill="white"/>
<path d="M8.32422 5.86499C8.73843 5.86499 9.07422 5.5292 9.07422 5.11499C9.07422 4.70078 8.73843 4.36499 8.32422 4.36499C7.91001 4.36499 7.57422 4.70078 7.57422 5.11499C7.57422 5.5292 7.91001 5.86499 8.32422 5.86499Z" fill="white"/>
</g>
</g>
<defs>
<clipPath id="clip0_164_16600">
<rect width="24" height="24" fill="white"/>
</clipPath>
</defs>
</svg>
