<svg width="24" height="24" viewBox="0 0 24 24" fill="none" xmlns="http://www.w3.org/2000/svg">
<g clip-path="url(#clip0_190_20504)">
<path d="M12.3437 14.1C14.1828 14.1 15.6737 12.6091 15.6737 10.77C15.6737 8.93088 14.1828 7.43999 12.3437 7.43999C10.5046 7.43999 9.01367 8.93088 9.01367 10.77C9.01367 12.6091 10.5046 14.1 12.3437 14.1Z" fill="white"/>
<path d="M18.8535 19.92C18.0285 17.04 15.4035 15.03 12.4635 15.03H12.1935C9.26845 15.03 6.64345 17.04 5.80345 19.92C5.75845 20.085 5.78845 20.265 5.89345 20.415C5.99845 20.565 6.16345 20.64 6.34345 20.64H18.3135C18.4935 20.64 18.6585 20.565 18.7635 20.415C18.8685 20.265 18.8985 20.1 18.8535 19.92Z" fill="white"/>
<path d="M14.4141 1.39499C11.9541 0.854995 9.59907 1.16999 7.57407 2.08499L6.74907 0.134995L4.13907 4.99499L9.11907 5.72999L8.44407 4.15499C10.0941 3.40499 12.0291 3.14999 14.0541 3.62999C17.2041 4.37999 19.7241 6.92999 20.4141 10.095C21.7641 16.32 16.3341 21.75 10.1241 20.43C6.91407 19.755 4.31907 17.16 3.59907 13.965C3.14907 12.015 3.40407 10.155 4.10907 8.54999C4.19907 8.32499 4.10907 8.06999 3.91407 7.96499L2.71407 7.36499C2.48907 7.24499 2.20407 7.34999 2.09907 7.57499C1.19907 9.55499 0.869071 11.85 1.37907 14.265C2.26407 18.525 5.72907 21.93 10.0041 22.71C17.5791 24.075 24.1041 17.535 22.6941 9.95999C21.9141 5.75999 18.5991 2.33999 14.4291 1.40999L14.4141 1.39499Z" fill="#4BC947"/>
</g>
<defs>
<clipPath id="clip0_190_20504">
<rect width="24" height="24" fill="white"/>
</clipPath>
</defs>
</svg>
