<svg width="16" height="16" viewBox="0 0 16 16" fill="none" xmlns="http://www.w3.org/2000/svg">
<path d="M2.91054 12.1911L0.617001 5.32839C5.23146 3.27672 10.6058 3.27672 15.2202 5.32839L12.9267 12.1911C12.9106 12.2393 12.8566 12.2633 12.8101 12.243C9.6911 10.882 6.14614 10.882 3.02719 12.243L3.22716 12.7013L3.02719 12.243C2.98062 12.2633 2.92665 12.2393 2.91054 12.1911Z" fill="#B3D7FF" stroke="#6EB0FA"/>
<path d="M3.30344 2.63008L2.99339 1.38989L2.68334 2.63008C2.52177 3.27201 1.94535 3.79603 1.17241 4.00127L0.718262 4.12354L1.17241 4.24581C1.94535 4.45105 2.52614 4.97508 2.68334 5.617L2.99339 6.85719L3.30344 5.617C3.46501 4.97508 4.04144 4.45105 4.81437 4.24581L5.26852 4.12354L4.81437 4.00127C4.04144 3.79603 3.46064 3.27201 3.30344 2.63008Z" fill="white"/>
<path d="M7.29435 5.36366L7.10657 4.53833L6.9188 5.36366C6.82273 5.79162 6.47774 6.14096 6.01049 6.27634L5.73975 6.35494L6.01049 6.43354C6.47338 6.57328 6.82273 6.91826 6.9188 7.34622L7.10657 8.17155L7.29435 7.34622C7.39042 6.91826 7.7354 6.56892 8.20265 6.43354L8.47339 6.35494L8.20265 6.27634C7.73976 6.1366 7.39042 5.79162 7.29435 5.36366Z" fill="white"/>
<path fill-rule="evenodd" clip-rule="evenodd" d="M13.7201 7.82173L14.022 7.92449L13.5441 9.3553L12.813 9.11406L13.141 8.11185C13.226 7.87224 13.4829 7.74551 13.723 7.82189L13.7201 7.82173Z" fill="#454B5E"/>
<path fill-rule="evenodd" clip-rule="evenodd" d="M12.7412 8.21885L10.5761 13.6925C10.5693 13.7123 10.5591 13.7405 10.5518 13.7688C10.4316 14.1272 10.6259 14.5143 10.99 14.6348C11.3484 14.7551 11.7384 14.5609 11.8589 14.1968C11.8658 14.177 11.8759 14.1489 11.8832 14.1205L13.4016 8.43897C13.4606 8.25541 13.3651 8.05763 13.1815 7.99872C12.9979 7.9398 12.8002 8.03529 12.7412 8.21885Z" fill="#595F72"/>
<path fill-rule="evenodd" clip-rule="evenodd" d="M11.3209 13.6245C11.5102 13.6837 11.6138 13.8905 11.5546 14.0798C11.4868 14.2687 11.2799 14.3723 11.0908 14.3102C10.9019 14.2424 10.7979 14.0441 10.8576 13.8462C10.9254 13.6574 11.1322 13.5538 11.3211 13.6216L11.3209 13.6245ZM11.2617 13.8138C11.3465 13.8385 11.3905 13.9272 11.3653 14.0206C11.3319 14.105 11.2433 14.149 11.1584 14.1242C11.0679 14.0991 11.0215 14.0018 11.0491 13.9171C11.0825 13.8327 11.1716 13.7801 11.2617 13.8138Z" fill="#454B5E"/>
<path fill-rule="evenodd" clip-rule="evenodd" d="M13.1136 8.18764C13.1985 8.2124 13.2425 8.30103 13.2177 8.38588C13.193 8.47074 13.1043 8.51474 13.0199 8.48137C12.9351 8.45661 12.8911 8.36798 12.9159 8.28313C12.9488 8.20734 13.0375 8.16048 13.1136 8.18764Z" fill="#454B5E"/>
<rect x="15.1548" y="4.4563" width="0.890913" height="8.85484" rx="0.445457" transform="rotate(18.3984 15.1548 4.4563)" fill="#595F72"/>
</svg>
