<svg width="24" height="24" viewBox="0 0 24 24" fill="none" xmlns="http://www.w3.org/2000/svg">
<g clip-path="url(#clip0_164_16526)">
<path d="M6.87 7.005H3.045C2.19172 7.005 1.5 7.69672 1.5 8.55V20.85C1.5 21.7033 2.19172 22.395 3.045 22.395H6.87C7.72328 22.395 8.415 21.7033 8.415 20.85V8.55C8.415 7.69672 7.72328 7.005 6.87 7.005Z" fill="#FF71AB"/>
<path d="M18.2253 7.76998H14.9253L15.4503 5.66998C15.9603 3.61498 14.4003 1.60498 12.2853 1.60498C11.5803 1.60498 10.9653 2.08498 10.8003 2.77498C10.8003 2.77498 10.2903 6.70498 9.55531 7.76998C9.36031 8.05498 8.44531 8.53498 8.44531 8.53498V21.615H16.4853C18.3153 21.615 19.9503 20.445 20.5353 18.69L22.3053 13.38C23.2203 10.62 21.1653 7.75498 18.2553 7.75498L18.2253 7.76998Z" fill="white"/>
</g>
<defs>
<clipPath id="clip0_164_16526">
<rect width="24" height="24" fill="white"/>
</clipPath>
</defs>
</svg>
