<svg width="24" height="24" viewBox="0 0 24 24" fill="none" xmlns="http://www.w3.org/2000/svg">
<g clip-path="url(#clip0_189_20476)">
<path opacity="0.4" d="M11.8933 16.86L4.45328 9.41998C3.20828 8.17498 3.20828 6.16498 4.45328 4.93498C5.30828 4.07998 6.55328 3.79498 7.69328 4.16998L13.0933 5.96998L20.3533 13.23L16.7233 16.86C15.3883 18.195 13.2133 18.195 11.8783 16.86H11.8933Z" fill="#55536B"/>
<path opacity="0.7" d="M16.7349 2.34825L13.1074 5.97571L20.3729 13.2412L24.0004 9.61377L16.7349 2.34825Z" fill="#55536B"/>
<path d="M11.9541 18L5.30907 11.355C4.46907 10.515 3.11907 10.515 2.27907 11.355C1.43907 12.195 1.43907 13.545 2.27907 14.385L4.39407 16.5L1.27407 19.62C0.809071 20.085 1.13907 20.895 1.79907 20.895H4.21407C4.61907 20.895 4.99407 20.73 5.27907 20.46L6.82407 18.915L8.93907 21.03C9.77907 21.87 11.1291 21.87 11.9691 21.03C12.8091 20.19 12.8091 18.84 11.9691 18H11.9541Z" fill="#28AEED"/>
<g opacity="0.7">
<path d="M8.41352 5.83497C8.74352 6.16497 9.28352 6.16497 9.62852 5.83497L10.3935 5.06997L8.57852 4.46997L8.41352 4.63497C8.08352 4.96497 8.08352 5.50497 8.41352 5.84997V5.83497Z" fill="#55536B"/>
<path d="M10.228 7.65001C10.558 7.98001 11.098 7.98001 11.443 7.65001L13.108 5.98501L11.293 5.38501L10.228 6.45001C9.89797 6.78001 9.89797 7.32001 10.228 7.66501V7.65001Z" fill="#55536B"/>
</g>
</g>
<defs>
<clipPath id="clip0_189_20476">
<rect width="24" height="24" fill="white"/>
</clipPath>
</defs>
</svg>
