<svg width="24" height="24" viewBox="0 0 24 24" fill="none" xmlns="http://www.w3.org/2000/svg">
<g clip-path="url(#clip0_164_16167)">
<path opacity="0.7" d="M19.3514 15.225L18.6914 15.39V8.60999L19.3514 8.77499C20.5514 9.07499 21.4064 10.155 21.4064 11.4V12.585C21.4064 13.83 20.5664 14.91 19.3514 15.21V15.225Z" fill="#55536B"/>
<path opacity="0.4" d="M13.1563 2.80494L7.12633 6.73494L5.62633 6.98994C3.88633 7.27494 2.61133 8.78994 2.61133 10.5599V13.4699C2.61133 15.2399 3.88633 16.7399 5.62633 17.0399L7.12633 17.2949L13.1563 21.2249C15.5713 22.7249 18.6913 20.9999 18.6913 18.1649V5.86494C18.6913 3.02994 15.5713 1.28994 13.1563 2.80494Z" fill="#55536B"/>
<g opacity="0.4">
<path d="M5.3107 10.65C5.3107 10.155 4.9057 9.75 4.4107 9.75H2.7007C2.6407 10.005 2.5957 10.275 2.5957 10.56V11.565H4.3957C4.8907 11.565 5.2957 11.16 5.2957 10.665L5.3107 10.65Z" fill="#55536B"/>
<path d="M5.3107 13.35C5.3107 12.855 4.9057 12.45 4.4107 12.45H2.5957V13.455C2.5957 13.725 2.6407 13.995 2.7007 14.265H4.4107C4.9057 14.265 5.3107 13.86 5.3107 13.365V13.35Z" fill="#55536B"/>
</g>
<path d="M20.8354 21.5849C20.6404 21.5849 20.4454 21.5099 20.3104 21.3599L2.62539 3.6899C2.32539 3.3899 2.32539 2.9249 2.62539 2.6249C2.92539 2.3249 3.39039 2.3249 3.69039 2.6249L21.3754 20.3099C21.6754 20.6099 21.6754 21.0749 21.3754 21.3749C21.2254 21.5249 21.0304 21.5999 20.8504 21.5999L20.8354 21.5849Z" fill="#55536B"/>
</g>
<defs>
<clipPath id="clip0_164_16167">
<rect width="24" height="24" fill="white"/>
</clipPath>
</defs>
</svg>
