<svg width="56" height="56" viewBox="0 0 25 25" fill="none" xmlns="http://www.w3.org/2000/svg"><path d="M17.5515 7.76439H15.6245V7.28264C15.6245 5.42309 14.1118 3.9104 12.2522 3.9104C10.3927 3.9104 8.88 5.42309 8.88 7.28264V7.76439H6.953V7.28264C6.953 4.35842 9.32803 1.9834 12.2522 1.9834C15.1765 1.9834 17.5515 4.35842 17.5515 7.28264V7.76439Z" fill="#B08CF7"></path><path d="M18.1587 22.2171H6.35099C5.33449 22.2171 4.49625 21.4319 4.42881 20.4202L3.68209 9.30625C3.62428 8.47282 4.2891 7.76465 5.12252 7.76465H19.3775C20.2157 7.76465 20.8757 8.47282 20.8179 9.30625L20.076 20.4202C20.0086 21.4319 19.1655 22.2171 18.1538 22.2171H18.1587Z" fill="url(#paint0_linear_3300_15083)"></path><path fill-rule="evenodd" clip-rule="evenodd" d="M15.3226 12.4384C15.3445 12.3718 15.4049 12.2695 15.57 12.2695H15.585H17.5762C17.7846 12.2773 17.8172 12.4523 17.8214 12.4873C17.7109 15.584 15.2591 18.0677 12.25 18.0677C9.24098 18.0677 6.7817 15.5762 6.67859 12.4723C6.69088 12.4129 6.74056 12.274 6.93397 12.274C6.95374 12.274 6.96977 12.2723 6.98259 12.2695H8.88461C8.89637 12.2712 8.91026 12.2723 8.92682 12.2723C9.10848 12.2723 9.16351 12.3962 9.17953 12.4601C9.27464 14.1359 10.6087 15.4689 12.2506 15.4689C13.8924 15.4689 15.2377 14.1243 15.3226 12.4384Z" fill="white"></path><defs><linearGradient id="paint0_linear_3300_15083" x1="12.25" y1="7.76465" x2="12.25" y2="22.2171" gradientUnits="userSpaceOnUse"><stop stop-color="#CAB2F9"></stop><stop offset="1" stop-color="#9564F4"></stop></linearGradient></defs></svg>