<svg width="20" height="20" viewBox="0 0 20 20" fill="none" xmlns="http://www.w3.org/2000/svg">
<path d="M8.84365 2.79591C9.31679 1.84586 10.6839 1.84586 11.157 2.79591L12.7329 5.96021C12.9208 6.33747 13.284 6.59896 13.7041 6.65946L17.2279 7.16688C18.2858 7.31923 18.7083 8.60766 17.9427 9.34717L15.3929 11.8102C15.0889 12.1039 14.9502 12.527 15.0219 12.9416L15.6239 16.4195C15.8046 17.4637 14.6986 18.26 13.7523 17.767L10.6006 16.125C10.2248 15.9292 9.77587 15.9292 9.40009 16.125L6.24833 17.767C5.30204 18.26 4.19606 17.4638 4.37679 16.4195L4.97872 12.9416C5.05049 12.527 4.91176 12.1039 4.60776 11.8102L2.05793 9.34717C1.29237 8.60766 1.71481 7.31923 2.77279 7.16688L6.29657 6.65946C6.7167 6.59896 7.07988 6.33747 7.26777 5.96021L8.84365 2.79591Z" fill="#DDDFE2"/>
</svg>
