<svg width="14" height="14" viewBox="0 0 14 14" fill="none" xmlns="http://www.w3.org/2000/svg">
<path fill-rule="evenodd" clip-rule="evenodd" d="M1.3125 3.5C1.3125 3.25838 1.50838 3.0625 1.75 3.0625H12.25C12.4916 3.0625 12.6875 3.25838 12.6875 3.5C12.6875 3.74162 12.4916 3.9375 12.25 3.9375H1.75C1.50838 3.9375 1.3125 3.74162 1.3125 3.5Z" fill="white"/>
<path fill-rule="evenodd" clip-rule="evenodd" d="M1.3125 7.29175C1.3125 7.05012 1.50838 6.85425 1.75 6.85425H12.25C12.4916 6.85425 12.6875 7.05012 12.6875 7.29175C12.6875 7.53337 12.4916 7.72925 12.25 7.72925H1.75C1.50838 7.72925 1.3125 7.53337 1.3125 7.29175Z" fill="white"/>
<path fill-rule="evenodd" clip-rule="evenodd" d="M1.3125 11.0833C1.3125 10.8416 1.50838 10.6458 1.75 10.6458H12.25C12.4916 10.6458 12.6875 10.8416 12.6875 11.0833C12.6875 11.3249 12.4916 11.5208 12.25 11.5208H1.75C1.50838 11.5208 1.3125 11.3249 1.3125 11.0833Z" fill="white"/>
</svg>
