<svg width="32" height="32" viewBox="0 0 32 32" fill="none" xmlns="http://www.w3.org/2000/svg"><g clip-path="url(#clip0_2635_268847)"><rect width="32" height="32" rx="8" fill="#BEC0C4"></rect><path d="M15.9997 7.73998C18.6897 7.73998 19.0097 7.74998 20.0697 7.79998C21.0497 7.84998 21.5797 8.00998 21.9397 8.14998C22.4097 8.32998 22.7497 8.54998 23.0997 8.89998C23.4497 9.24998 23.6697 9.58998 23.8497 10.06C23.9897 10.42 24.1497 10.95 24.1997 11.93C24.2497 12.99 24.2597 13.31 24.2597 16C24.2597 18.69 24.2497 19.01 24.1997 20.07C24.1597 21.05 23.9897 21.59 23.8497 21.94C23.6697 22.41 23.4497 22.74 23.0997 23.1C22.7497 23.46 22.4097 23.67 21.9397 23.85C21.5797 23.99 21.0497 24.15 20.0697 24.2C19.0097 24.25 18.6897 24.26 15.9997 24.26C13.3097 24.26 12.9897 24.26 11.9297 24.2C10.9497 24.15 10.4097 23.99 10.0597 23.85C9.58969 23.67 9.25969 23.45 8.89969 23.1C8.54969 22.75 8.32969 22.41 8.14969 21.94C8.00969 21.58 7.84969 21.05 7.79969 20.07C7.74969 19.01 7.73969 18.69 7.73969 16C7.73969 13.31 7.73969 12.99 7.79969 11.93C7.83969 10.95 8.00969 10.41 8.14969 10.06C8.32969 9.58998 8.54969 9.24998 8.89969 8.89998C9.24969 8.54998 9.58969 8.32998 10.0597 8.14998C10.4197 8.00998 10.9497 7.84998 11.9297 7.79998C12.9897 7.74998 13.3097 7.73998 15.9997 7.73998ZM15.9997 5.91998C13.2597 5.91998 12.9197 5.92998 11.8497 5.97998C10.7797 6.02998 10.0397 6.19998 9.39969 6.44998C8.73969 6.70998 8.17969 7.04998 7.61969 7.60998C7.05969 8.16998 6.70969 8.72998 6.45969 9.39998C6.20969 10.04 6.03969 10.77 5.98969 11.84C5.93969 12.91 5.92969 13.26 5.92969 15.99C5.92969 18.72 5.93969 19.07 5.98969 20.14C6.03969 21.21 6.20969 21.95 6.45969 22.59C6.71969 23.25 7.05969 23.82 7.61969 24.38C8.17969 24.94 8.73969 25.29 9.39969 25.54C10.0397 25.79 10.7697 25.96 11.8497 26.01C12.9197 26.06 13.2697 26.07 15.9997 26.07C18.7297 26.07 19.0797 26.06 20.1497 26.01C21.2197 25.96 21.9497 25.79 22.5997 25.54C23.2597 25.28 23.8297 24.94 24.3897 24.38C24.9497 23.82 25.2897 23.26 25.5497 22.59C25.7997 21.95 25.9697 21.22 26.0197 20.14C26.0697 19.07 26.0797 18.72 26.0797 15.99C26.0797 13.26 26.0697 12.91 26.0197 11.84C25.9697 10.77 25.7997 10.04 25.5497 9.39998C25.2897 8.73998 24.9497 8.16998 24.3897 7.60998C23.8297 7.04998 23.2697 6.70998 22.5997 6.44998C21.9597 6.19998 21.2297 6.02998 20.1497 5.97998C19.0797 5.92998 18.7297 5.91998 15.9997 5.91998Z" fill="white"></path><path d="M16.0001 10.83C13.1401 10.83 10.8301 13.15 10.8301 16C10.8301 18.85 13.1501 21.17 16.0001 21.17C18.8501 21.17 21.1701 18.85 21.1701 16C21.1701 13.15 18.8501 10.83 16.0001 10.83ZM16.0001 19.36C14.1501 19.36 12.6401 17.86 12.6401 16C12.6401 14.14 14.1401 12.64 16.0001 12.64C17.8601 12.64 19.3601 14.14 19.3601 16C19.3601 17.86 17.8601 19.36 16.0001 19.36Z" fill="white"></path><path d="M22.5899 10.62C22.5899 11.29 22.0499 11.83 21.3799 11.83C20.7099 11.83 20.1699 11.29 20.1699 10.62C20.1699 9.94997 20.7099 9.40997 21.3799 9.40997C22.0499 9.40997 22.5899 9.94997 22.5899 10.62Z" fill="white"></path></g><defs><clipPath id="clip0_2635_268847"><rect width="32" height="32" fill="white"></rect></clipPath></defs></svg>