<svg width="32" height="32" viewBox="0 0 32 32" fill="none" xmlns="http://www.w3.org/2000/svg"><g clip-path="url(#clip0_2635_268848)"><rect width="32" height="32" rx="8" fill="#BEC0C4"></rect><path d="M26.2203 10.87C25.9703 9.95003 25.2503 9.23003 24.3303 8.98003C22.6703 8.53003 16.0003 8.53003 16.0003 8.53003C16.0003 8.53003 9.33031 8.53003 7.66031 8.98003C6.74031 9.23003 6.02031 9.95003 5.77031 10.87C5.32031 12.53 5.32031 16 5.32031 16C5.32031 16 5.32031 19.47 5.77031 21.14C6.02031 22.06 6.74031 22.78 7.66031 23.03C9.32031 23.48 16.0003 23.48 16.0003 23.48C16.0003 23.48 22.6703 23.48 24.3303 23.03C25.2503 22.78 25.9703 22.06 26.2203 21.14C26.6703 19.48 26.6703 16 26.6703 16C26.6703 16 26.6703 12.53 26.2203 10.87ZM13.8703 19.21V12.81L19.4103 16.01L13.8703 19.21Z" fill="white"></path></g><defs><clipPath id="clip0_2635_268848"><rect width="32" height="32" fill="white"></rect></clipPath></defs></svg>