<svg width="24" height="24" viewBox="0 0 24 24" fill="none" xmlns="http://www.w3.org/2000/svg">
<circle cx="12" cy="12" r="10" fill="#505250"/>
<path d="M11.9994 18.5568C15.5885 18.5568 18.4981 15.6334 18.4981 12.0273C18.4981 8.42115 15.5885 5.4978 11.9994 5.4978C8.41026 5.4978 5.50069 8.42115 5.50069 12.0273C5.50069 15.6334 8.41026 18.5568 11.9994 18.5568Z" fill="#3C3C3C"/>
<path d="M11.9994 17.7069C15.1214 17.7069 17.6522 15.164 17.6522 12.0273C17.6522 8.8905 15.1214 6.34766 11.9994 6.34766C8.87742 6.34766 6.34657 8.8905 6.34657 12.0273C6.34657 15.164 8.87742 17.7069 11.9994 17.7069Z" fill="#C5C5C5"/>
<path d="M11.3191 14.504L10.5807 15.791C10.5123 15.9103 10.4763 16.0457 10.4764 16.1835C10.4764 16.3212 10.5125 16.4566 10.5811 16.5759C10.6496 16.6952 10.7482 16.7943 10.8669 16.8632C10.9857 16.9321 11.1203 16.9685 11.2574 16.9686H12.7353C12.8725 16.9687 13.0073 16.9325 13.1262 16.8637C13.2451 16.7948 13.3439 16.6957 13.4126 16.5764C13.4813 16.457 13.5175 16.3216 13.5176 16.1838C13.5177 16.0459 13.4817 15.9104 13.4132 15.791L12.6737 14.504C12.6048 14.3848 12.506 14.2858 12.3872 14.2171C12.2683 14.1483 12.1335 14.1121 11.9964 14.1121C11.8592 14.1121 11.7244 14.1483 11.6056 14.2171C11.4867 14.2858 11.3879 14.3848 11.3191 14.504Z" fill="#E5E6EB"/>
<path d="M13.7951 13.8569L14.5346 15.1438C14.6033 15.263 14.7019 15.362 14.8207 15.4309C14.9395 15.4997 15.0742 15.5359 15.2113 15.5359C15.3484 15.5359 15.4831 15.4997 15.6019 15.4309C15.7206 15.362 15.8193 15.263 15.888 15.1438L16.6275 13.8569C16.696 13.7375 16.732 13.6021 16.7319 13.4644C16.7319 13.3266 16.6957 13.1913 16.6272 13.072C16.5586 12.9527 16.46 12.8536 16.3413 12.7846C16.2226 12.7157 16.0879 12.6793 15.9508 12.6792H14.473C14.3357 12.6791 14.2009 12.7153 14.082 12.7842C13.9632 12.853 13.8644 12.9521 13.7957 13.0714C13.727 13.1908 13.6908 13.3262 13.6907 13.4641C13.6906 13.6019 13.7266 13.7374 13.7951 13.8569Z" fill="#E5E6EB"/>
<path d="M14.4754 11.3838H15.9605C16.0976 11.3837 16.2323 11.3473 16.351 11.2784C16.4697 11.2095 16.5683 11.1104 16.6368 10.9911C16.7054 10.8718 16.7415 10.7364 16.7416 10.5987C16.7416 10.4609 16.7056 10.3255 16.6372 10.2062L15.8977 8.92041C15.8292 8.80087 15.7306 8.70157 15.6118 8.63252C15.493 8.56347 15.3582 8.5271 15.221 8.5271C15.0837 8.5271 14.9489 8.56347 14.8301 8.63252C14.7113 8.70157 14.6127 8.80087 14.5443 8.92041L13.8047 10.2062C13.7365 10.3251 13.7005 10.4599 13.7003 10.5971C13.7001 10.7344 13.7357 10.8693 13.8035 10.9885C13.8714 11.1076 13.9691 11.2068 14.087 11.2762C14.2049 11.3455 14.3388 11.3827 14.4754 11.3838Z" fill="#E5E6EB"/>
<path d="M12.6797 9.54815L13.4192 8.26241C13.4877 8.14304 13.5237 8.00767 13.5236 7.8699C13.5236 7.73213 13.4875 7.59681 13.4189 7.47749C13.3504 7.35818 13.2518 7.25909 13.1331 7.19015C13.0143 7.12121 12.8797 7.08485 12.7426 7.08472H11.2635C11.1264 7.08485 10.9917 7.12121 10.873 7.19015C10.7543 7.25909 10.6557 7.35818 10.5871 7.47749C10.5186 7.59681 10.4825 7.73213 10.4824 7.8699C10.4823 8.00767 10.5183 8.14304 10.5868 8.26241L11.3263 9.54815C11.3948 9.66769 11.4933 9.767 11.6121 9.83605C11.7309 9.90511 11.8658 9.94146 12.003 9.94146C12.1403 9.94146 12.2751 9.90511 12.3939 9.83605C12.5127 9.767 12.6113 9.66769 12.6797 9.54815Z" fill="#E5E6EB"/>
<path d="M10.2037 10.1952L9.46541 8.90951C9.39657 8.7903 9.29778 8.69135 9.17891 8.62257C9.06005 8.55378 8.92528 8.51758 8.78811 8.51758C8.65094 8.51758 8.51617 8.55378 8.39731 8.62257C8.27844 8.69135 8.17965 8.7903 8.11081 8.90951L7.37249 10.1952C7.30374 10.3146 7.26749 10.4501 7.2674 10.5881C7.26731 10.726 7.30337 10.8616 7.37196 10.9811C7.44055 11.1006 7.53925 11.1998 7.65813 11.2688C7.77701 11.3378 7.91189 11.3742 8.04919 11.3742H9.52704C9.66433 11.3742 9.7992 11.3378 9.91809 11.2688C10.037 11.1998 10.1357 11.1006 10.2043 10.9811C10.2728 10.8616 10.3089 10.726 10.3088 10.5881C10.3087 10.4501 10.2725 10.3146 10.2037 10.1952Z" fill="#E5E6EB"/>
<path d="M9.52341 12.6733H8.04556C7.90844 12.6735 7.77377 12.7098 7.65505 12.7788C7.53634 12.8477 7.43776 12.9468 7.3692 13.0661C7.30064 13.1854 7.26452 13.3208 7.26447 13.4585C7.26441 13.5963 7.30041 13.7316 7.36886 13.851L8.1084 15.138C8.17707 15.2572 8.27574 15.3562 8.39451 15.425C8.51329 15.4938 8.64798 15.5301 8.78509 15.5301C8.9222 15.5301 9.0569 15.4938 9.17567 15.425C9.29444 15.3562 9.39311 15.2572 9.46179 15.138L10.2013 13.851C10.2698 13.7316 10.3058 13.5961 10.3057 13.4582C10.3056 13.3204 10.2694 13.1849 10.2007 13.0656C10.132 12.9463 10.0332 12.8472 9.91435 12.7783C9.79547 12.7095 9.66063 12.6733 9.52341 12.6733Z" fill="#E5E6EB"/>
<path d="M11.9994 13.8752C13.0151 13.8752 13.8386 13.0479 13.8386 12.0273C13.8386 11.0068 13.0151 10.1794 11.9994 10.1794C10.9837 10.1794 10.1602 11.0068 10.1602 12.0273C10.1602 13.0479 10.9837 13.8752 11.9994 13.8752Z" fill="#A5A5A5"/>
<path d="M11.9994 13.0337C12.5526 13.0337 13.0011 12.5831 13.0011 12.0272C13.0011 11.4714 12.5526 11.0208 11.9994 11.0208C11.4461 11.0208 10.9976 11.4714 10.9976 12.0272C10.9976 12.5831 11.4461 13.0337 11.9994 13.0337Z" fill="#515151"/>
</svg>
