<svg width="24" height="25" viewBox="0 0 24 25" fill="none" xmlns="http://www.w3.org/2000/svg">
<g id="Group 427318696">
<path id="Rectangle 63" d="M1.5 7.16675H22.5L21.3353 21.6603C21.2518 22.6994 20.3842 23.5001 19.3418 23.5001H4.65823C3.61578 23.5001 2.74816 22.6994 2.66466 21.6603L1.5 7.16675Z" stroke="#282A2E" stroke-width="1.5" stroke-linejoin="round"/>
<path id="Ellipse 2370" d="M16.5 13C16.5 13.5253 16.3836 14.0454 16.1575 14.5307C15.9313 15.016 15.5998 15.457 15.182 15.8284C14.7641 16.1999 14.268 16.4945 13.7221 16.6955C13.1761 16.8965 12.5909 17 12 17C11.4091 17 10.8239 16.8965 10.2779 16.6955C9.73196 16.4945 9.23588 16.1999 8.81802 15.8284C8.40016 15.457 8.06869 15.016 7.84254 14.5307C7.6164 14.0454 7.5 13.5253 7.5 13" stroke="#282A2E" stroke-width="1.5"/>
<path id="Ellipse 36" d="M7.33331 6.99991V5.99992C7.33331 3.42259 9.42265 1.33325 12 1.33325C14.5773 1.33325 16.6666 3.42259 16.6666 5.99992V6.99991" stroke="#282A2E" stroke-width="1.5" stroke-linecap="round"/>
</g>
</svg>
