<svg width="20" height="19" viewBox="0 0 20 19" fill="none" xmlns="http://www.w3.org/2000/svg">
<g id="&#235;&#160;&#136;&#236;&#157;&#180;&#236;&#150;&#180;">
<path id="Rectangle 31" d="M12 18V15C12 13.8954 11.1046 13 10 13V13C8.89543 13 8 13.8954 8 15V18" stroke="#282A2E" stroke-width="1.5"/>
<path id="Rectangle 2621" d="M3 9V18H17V9" stroke="#282A2E" stroke-width="1.5"/>
<path id="Vector 96" d="M1 18H19" stroke="#282A2E" stroke-width="1.5"/>
<g id="Union">
<path fill-rule="evenodd" clip-rule="evenodd" d="M16.75 1H3.25L1 7C1 7.26264 1.0776 7.52272 1.22836 7.76537C1.37913 8.00802 1.6001 8.2285 1.87868 8.41421C2.15726 8.59993 2.48797 8.74725 2.85195 8.84776C3.21593 8.94827 3.60603 9 4 9C4.39397 9 4.78407 8.94827 5.14805 8.84776C5.51203 8.74725 5.84274 8.59993 6.12132 8.41421C6.3999 8.2285 6.62087 8.00802 6.77164 7.76537C6.9224 7.52272 7 7.26264 7 7C7 7.26264 7.0776 7.52272 7.22836 7.76537C7.37913 8.00802 7.6001 8.2285 7.87868 8.41421C8.15726 8.59993 8.48797 8.74725 8.85195 8.84776C9.21593 8.94827 9.60603 9 10 9C10.394 9 10.7841 8.94827 11.1481 8.84776C11.512 8.74725 11.8427 8.59993 12.1213 8.41421C12.3999 8.2285 12.6209 8.00802 12.7716 7.76537C12.9224 7.52272 13 7.26264 13 7C13 7.26264 13.0776 7.52272 13.2284 7.76537C13.3791 8.00802 13.6001 8.2285 13.8787 8.41421C14.1573 8.59993 14.488 8.74725 14.8519 8.84776C15.2159 8.94827 15.606 9 16 9C16.394 9 16.7841 8.94827 17.1481 8.84776C17.512 8.74725 17.8427 8.59993 18.1213 8.41421C18.3999 8.2285 18.6209 8.00802 18.7716 7.76537C18.9224 7.52272 19 7.26264 19 7L16.75 1Z" fill="#282A2E"/>
<path d="M3.25 1V0.25C2.93737 0.25 2.65753 0.44393 2.54775 0.736657L3.25 1ZM16.75 1L17.4522 0.736657C17.3425 0.44393 17.0626 0.25 16.75 0.25V1ZM1 7L0.297753 6.73666C0.266175 6.82087 0.25 6.91007 0.25 7H1ZM1.22836 7.76537L0.591311 8.16118L0.591311 8.16118L1.22836 7.76537ZM1.87868 8.41421L2.2947 7.79018H2.2947L1.87868 8.41421ZM2.85195 8.84776L3.05159 8.12482L3.05158 8.12482L2.85195 8.84776ZM5.14805 8.84776L4.94842 8.12482L4.94841 8.12482L5.14805 8.84776ZM6.12132 8.41421L6.53735 9.03825L6.53735 9.03825L6.12132 8.41421ZM6.77164 7.76537L6.13459 7.36955L6.13459 7.36955L6.77164 7.76537ZM7.75 7C7.75 6.58579 7.41421 6.25 7 6.25C6.58579 6.25 6.25 6.58579 6.25 7H7.75ZM7.22836 7.76537L6.59131 8.16118L6.59131 8.16118L7.22836 7.76537ZM7.87868 8.41421L8.2947 7.79018H8.2947L7.87868 8.41421ZM8.85195 8.84776L9.05159 8.12482L9.05158 8.12482L8.85195 8.84776ZM11.1481 8.84776L10.9484 8.12482H10.9484L11.1481 8.84776ZM12.7716 7.76537L12.1346 7.36955L12.1346 7.36956L12.7716 7.76537ZM13.75 7C13.75 6.58579 13.4142 6.25 13 6.25C12.5858 6.25 12.25 6.58579 12.25 7H13.75ZM13.2284 7.76537L12.5913 8.16118L12.5913 8.16118L13.2284 7.76537ZM14.8519 8.84776L15.0516 8.12482H15.0516L14.8519 8.84776ZM17.1481 8.84776L16.9484 8.12482L16.9484 8.12482L17.1481 8.84776ZM19 7H19.75C19.75 6.91007 19.7338 6.82087 19.7022 6.73666L19 7ZM3.25 1.75H16.75V0.25H3.25V1.75ZM1.70225 7.26334L3.95225 1.26334L2.54775 0.736657L0.297753 6.73666L1.70225 7.26334ZM1.86541 7.36956C1.78176 7.23492 1.75 7.11055 1.75 7H0.25C0.25 7.41473 0.373436 7.81051 0.591311 8.16118L1.86541 7.36956ZM2.2947 7.79018C2.09007 7.65375 1.95075 7.5069 1.86541 7.36955L0.591311 8.16118C0.807506 8.50914 1.11014 8.80324 1.46265 9.03825L2.2947 7.79018ZM3.05158 8.12482C2.75484 8.04287 2.49898 7.92636 2.2947 7.79018L1.46265 9.03825C1.81553 9.2735 2.22111 9.45163 2.65232 9.5707L3.05158 8.12482ZM4 8.25C3.67056 8.25 3.34777 8.20661 3.05159 8.12482L2.65231 9.5707C3.08408 9.68993 3.54151 9.75 4 9.75V8.25ZM4.94841 8.12482C4.65223 8.20661 4.32944 8.25 4 8.25V9.75C4.45849 9.75 4.91592 9.68993 5.34769 9.5707L4.94841 8.12482ZM5.7053 7.79018C5.50101 7.92636 5.24516 8.04287 4.94842 8.12482L5.34768 9.5707C5.77889 9.45163 6.18447 9.2735 6.53735 9.03825L5.7053 7.79018ZM6.13459 7.36955C6.04926 7.5069 5.90993 7.65375 5.7053 7.79018L6.53735 9.03825C6.88986 8.80324 7.19249 8.50914 7.40869 8.16118L6.13459 7.36955ZM6.25 7C6.25 7.11055 6.21824 7.23492 6.13459 7.36955L7.40869 8.16118C7.62656 7.81051 7.75 7.41473 7.75 7H6.25ZM7.86541 7.36956C7.78176 7.23492 7.75 7.11055 7.75 7H6.25C6.25 7.41473 6.37344 7.81051 6.59131 8.16118L7.86541 7.36956ZM8.2947 7.79018C8.09007 7.65375 7.95075 7.5069 7.86541 7.36955L6.59131 8.16118C6.80751 8.50914 7.11014 8.80324 7.46266 9.03825L8.2947 7.79018ZM9.05158 8.12482C8.75484 8.04287 8.49898 7.92636 8.2947 7.79018L7.46265 9.03825C7.81553 9.2735 8.22111 9.45163 8.65232 9.5707L9.05158 8.12482ZM10 8.25C9.67056 8.25 9.34777 8.20661 9.05159 8.12482L8.65231 9.5707C9.08408 9.68993 9.54151 9.75 10 9.75V8.25ZM10.9484 8.12482C10.6522 8.20661 10.3294 8.25 10 8.25V9.75C10.4585 9.75 10.9159 9.68993 11.3477 9.5707L10.9484 8.12482ZM11.7053 7.79018C11.501 7.92636 11.2452 8.04287 10.9484 8.12482L11.3477 9.5707C11.7789 9.45163 12.1845 9.2735 12.5373 9.03825L11.7053 7.79018ZM12.1346 7.36956C12.0493 7.5069 11.9099 7.65375 11.7053 7.79018L12.5373 9.03825C12.8899 8.80324 13.1925 8.50914 13.4087 8.16118L12.1346 7.36956ZM12.25 7C12.25 7.11055 12.2182 7.23492 12.1346 7.36955L13.4087 8.16118C13.6266 7.81051 13.75 7.41473 13.75 7H12.25ZM13.8654 7.36956C13.7818 7.23492 13.75 7.11055 13.75 7H12.25C12.25 7.41473 12.3734 7.81051 12.5913 8.16118L13.8654 7.36956ZM14.2947 7.79018C14.0901 7.65375 13.9507 7.5069 13.8654 7.36955L12.5913 8.16118C12.8075 8.50914 13.1101 8.80324 13.4627 9.03825L14.2947 7.79018ZM15.0516 8.12482C14.7548 8.04287 14.499 7.92636 14.2947 7.79018L13.4627 9.03825C13.8155 9.2735 14.2211 9.45163 14.6523 9.5707L15.0516 8.12482ZM16 8.25C15.6706 8.25 15.3478 8.20661 15.0516 8.12482L14.6523 9.5707C15.0841 9.68993 15.5415 9.75 16 9.75V8.25ZM16.9484 8.12482C16.6522 8.20661 16.3294 8.25 16 8.25V9.75C16.4585 9.75 16.9159 9.68993 17.3477 9.5707L16.9484 8.12482ZM17.7053 7.79018C17.501 7.92636 17.2452 8.04287 16.9484 8.12482L17.3477 9.5707C17.7789 9.45163 18.1845 9.2735 18.5373 9.03825L17.7053 7.79018ZM18.1346 7.36955C18.0493 7.5069 17.9099 7.65375 17.7053 7.79018L18.5373 9.03825C18.8899 8.80324 19.1925 8.50914 19.4087 8.16118L18.1346 7.36955ZM18.25 7C18.25 7.11055 18.2182 7.23492 18.1346 7.36955L19.4087 8.16118C19.6266 7.81051 19.75 7.41473 19.75 7H18.25ZM16.0478 1.26334L18.2978 7.26334L19.7022 6.73666L17.4522 0.736657L16.0478 1.26334Z" fill="#282A2E"/>
</g>
</g>
</svg>
