<svg width="22" height="21" viewBox="0 0 22 21" fill="none" xmlns="http://www.w3.org/2000/svg">
<g id="&#235;&#160;&#136;&#236;&#157;&#180;&#236;&#150;&#180;">
<path id="Rectangle 31" d="M13.1666 19.7499V16.3333C13.1666 15.2287 12.2712 14.3333 11.1666 14.3333H10.8333C9.72874 14.3333 8.83331 15.2287 8.83331 16.3333V19.7499" stroke="#96989C" stroke-width="1.5"/>
<path id="Rectangle 2621" d="M3.41669 10V19.75H18.5834V10" stroke="#96989C" stroke-width="1.5"/>
<path id="Vector 96" d="M1.25 19.75H20.75" stroke="#96989C" stroke-width="1.5"/>
<path id="Union" d="M3.6875 1.33325V0.583252C3.37487 0.583252 3.09503 0.777182 2.98525 1.06991L3.6875 1.33325ZM18.3125 1.33325L19.0147 1.06991C18.905 0.777182 18.6251 0.583252 18.3125 0.583252V1.33325ZM1.25 7.83325L0.547753 7.56991C0.516175 7.65412 0.5 7.74332 0.5 7.83325H1.25ZM1.49739 8.6624L0.860341 9.05821L0.860342 9.05821L1.49739 8.6624ZM2.2019 9.36532L2.61793 8.74128L2.61793 8.74128L2.2019 9.36532ZM3.25628 9.83499L3.45591 9.11205L3.45591 9.11205L3.25628 9.83499ZM5.74372 9.83499L5.94336 10.5579H5.94336L5.74372 9.83499ZM6.7981 9.36532L6.38207 8.74128L6.38207 8.74128L6.7981 9.36532ZM7.50261 8.6624L8.13966 9.05821L8.13966 9.05821L7.50261 8.6624ZM8.5 7.83325C8.5 7.41904 8.16421 7.08325 7.75 7.08325C7.33579 7.08325 7 7.41904 7 7.83325H8.5ZM7.99739 8.6624L7.36034 9.05821L7.36034 9.05821L7.99739 8.6624ZM8.7019 9.36532L9.11793 8.74128L9.11793 8.74128L8.7019 9.36532ZM9.75628 9.83499L9.95592 9.11205L9.95591 9.11205L9.75628 9.83499ZM12.2437 9.83499L12.4434 10.5579H12.4434L12.2437 9.83499ZM13.2981 9.36532L12.8821 8.74128V8.74128L13.2981 9.36532ZM14.0026 8.6624L13.3656 8.26659L13.3656 8.26659L14.0026 8.6624ZM15 7.83325C15 7.41904 14.6642 7.08325 14.25 7.08325C13.8358 7.08325 13.5 7.41904 13.5 7.83325H15ZM14.4974 8.6624L15.1344 8.26659L15.1344 8.26659L14.4974 8.6624ZM15.2019 9.36532L14.7859 9.98935L15.2019 9.36532ZM16.2563 9.83499L16.4559 9.11205L16.4559 9.11205L16.2563 9.83499ZM18.7437 9.83499L18.9434 10.5579H18.9434L18.7437 9.83499ZM19.7981 9.36532L19.3821 8.74128V8.74128L19.7981 9.36532ZM20.5026 8.6624L21.1397 9.05821L21.1397 9.05821L20.5026 8.6624ZM20.75 7.83325H21.5C21.5 7.74332 21.4838 7.65412 21.4522 7.56991L20.75 7.83325ZM3.6875 2.08325H18.3125V0.583252H3.6875V2.08325ZM1.95225 8.09659L4.38975 1.59659L2.98525 1.06991L0.547753 7.56991L1.95225 8.09659ZM2.13444 8.26659C2.03822 8.11173 2 7.96569 2 7.83325H0.5C0.5 8.26987 0.629903 8.68733 0.860341 9.05821L2.13444 8.26659ZM2.61793 8.74128C2.39008 8.58938 2.23234 8.42415 2.13444 8.26659L0.860342 9.05821C1.0891 9.42639 1.41015 9.73887 1.78588 9.98935L2.61793 8.74128ZM3.45591 9.11205C3.12883 9.02173 2.84542 8.89294 2.61793 8.74128L1.78588 9.98935C2.16196 10.2401 2.59511 10.4305 3.05664 10.5579L3.45591 9.11205ZM4.5 9.24992C4.13773 9.24992 3.78243 9.20221 3.45591 9.11205L3.05664 10.5579C3.51874 10.6855 4.00868 10.7499 4.5 10.7499V9.24992ZM5.54409 9.11205C5.21757 9.20221 4.86227 9.24992 4.5 9.24992V10.7499C4.99132 10.7499 5.48126 10.6855 5.94336 10.5579L5.54409 9.11205ZM6.38207 8.74128C6.15458 8.89294 5.87116 9.02173 5.54409 9.11205L5.94336 10.5579C6.40489 10.4305 6.83804 10.2401 7.21412 9.98935L6.38207 8.74128ZM6.86556 8.26659C6.76766 8.42415 6.60992 8.58938 6.38207 8.74128L7.21412 9.98935C7.58985 9.73887 7.9109 9.42639 8.13966 9.05821L6.86556 8.26659ZM7 7.83325C7 7.96569 6.96178 8.11173 6.86556 8.26659L8.13966 9.05821C8.3701 8.68733 8.5 8.26987 8.5 7.83325H7ZM8.63444 8.26659C8.53822 8.11173 8.5 7.96569 8.5 7.83325H7C7 8.26987 7.1299 8.68733 7.36034 9.05821L8.63444 8.26659ZM9.11793 8.74128C8.89008 8.58938 8.73234 8.42415 8.63444 8.26659L7.36034 9.05821C7.5891 9.42639 7.91015 9.73887 8.28588 9.98935L9.11793 8.74128ZM9.95591 9.11205C9.62883 9.02173 9.34542 8.89294 9.11793 8.74128L8.28588 9.98935C8.66196 10.2401 9.09511 10.4305 9.55664 10.5579L9.95591 9.11205ZM11 9.24992C10.6377 9.24992 10.2824 9.20221 9.95592 9.11205L9.55664 10.5579C10.0187 10.6855 10.5087 10.7499 11 10.7499V9.24992ZM12.0441 9.11205C11.7176 9.20221 11.3623 9.24992 11 9.24992V10.7499C11.4913 10.7499 11.9813 10.6855 12.4434 10.5579L12.0441 9.11205ZM12.8821 8.74128C12.6546 8.89294 12.3712 9.02173 12.0441 9.11205L12.4434 10.5579C12.9049 10.4305 13.338 10.2401 13.7141 9.98935L12.8821 8.74128ZM13.3656 8.26659C13.2677 8.42415 13.1099 8.58938 12.8821 8.74128L13.7141 9.98935C14.0899 9.73887 14.4109 9.42639 14.6397 9.05821L13.3656 8.26659ZM13.5 7.83325C13.5 7.96569 13.4618 8.11173 13.3656 8.26659L14.6397 9.05821C14.8701 8.68733 15 8.26987 15 7.83325H13.5ZM15.1344 8.26659C15.0382 8.11173 15 7.96569 15 7.83325H13.5C13.5 8.26987 13.6299 8.68733 13.8603 9.05821L15.1344 8.26659ZM15.6179 8.74128C15.3901 8.58938 15.2323 8.42415 15.1344 8.26659L13.8603 9.05821C14.0891 9.42639 14.4101 9.73887 14.7859 9.98935L15.6179 8.74128ZM16.4559 9.11205C16.1288 9.02173 15.8454 8.89294 15.6179 8.74128L14.7859 9.98935C15.162 10.2401 15.5951 10.4305 16.0566 10.5579L16.4559 9.11205ZM17.5 9.24992C17.1377 9.24992 16.7824 9.20221 16.4559 9.11205L16.0566 10.5579C16.5187 10.6855 17.0087 10.7499 17.5 10.7499V9.24992ZM18.5441 9.11205C18.2176 9.20221 17.8623 9.24992 17.5 9.24992V10.7499C17.9913 10.7499 18.4813 10.6855 18.9434 10.5579L18.5441 9.11205ZM19.3821 8.74128C19.1546 8.89294 18.8712 9.02173 18.5441 9.11205L18.9434 10.5579C19.4049 10.4305 19.838 10.2401 20.2141 9.98935L19.3821 8.74128ZM19.8656 8.26659C19.7677 8.42415 19.6099 8.58938 19.3821 8.74128L20.2141 9.98935C20.5899 9.73887 20.9109 9.42639 21.1397 9.05821L19.8656 8.26659ZM20 7.83325C20 7.96569 19.9618 8.11173 19.8656 8.26659L21.1397 9.05821C21.3701 8.68733 21.5 8.26987 21.5 7.83325H20ZM17.6103 1.59659L20.0478 8.09659L21.4522 7.56991L19.0147 1.06991L17.6103 1.59659Z" fill="#96989C"/>
</g>
</svg>
